<svg width="11" height="15" viewBox="0 0 11 15" fill="none" xmlns="http://www.w3.org/2000/svg">
<path d="M3.00006 6L5.77262e-05 5C-0.0160023 4.86425 5.77262e-05 5.25645 5.77262e-05 5C5.77262e-05 3.68778 1.01798 1.92002 2.00006 1C2.98226 0.064819 4.35783 0 6.00006 0C7.62623 0 8.05022 0.125226 9.00006 1C9.95002 1.85973 11.0001 3.73303 11.0001 5C11.0001 6.8552 9.96434 7.83857 8.00006 9L5.00006 11C3.88914 11.6637 3.16114 12.2911 3.00006 13H11.0001V15H5.77262e-05C0.0322986 13.7632 0.436627 12.9352 1.00006 12C1.57967 11.0648 2.69593 9.78428 4.00006 9L6.00006 8C7.43303 7.14027 9.00006 6.17647 9.00006 5C9.00006 4.27602 8.51531 3.49774 8.00006 3C7.48493 2.50226 6.93396 2 6.00006 2C5.01798 2 3.51531 2.44197 3.00006 3C2.48493 3.55803 3.00006 4.11007 3.00006 5C3.00006 5.13575 2.96794 5.6983 3.00006 6Z" fill="white"/>
</svg>
