<svg width="11" height="15" viewBox="0 0 11 15" fill="none" xmlns="http://www.w3.org/2000/svg">
<path d="M4 8L3 6L8 2H0V0H11V2L6 6C7.21716 6 9.07563 6.21679 10 7C10.9399 7.78309 11 8.5994 11 10C11 11.2951 10.9706 13.0813 10 14C9.02941 14.9186 7.67935 15 6 15C4.35162 15 3.00144 14.8885 2 14C1.01404 13.0964 0.0770693 11.2801 0 10H2C2.04622 10.9488 2.38379 11.4127 3 12C3.63169 12.5722 5.07563 13 6 13C6.98607 13 7.44538 12.512 8 12C8.57011 11.4729 9 10.7681 9 10C9 9.11141 8.60084 8.46683 8 8C7.39916 7.53306 6.83193 8 6 8C5.5533 8 4.43145 7.84932 4 8Z" fill="white"/>
</svg>
