<svg width="20" height="16" viewBox="0 0 20 16" fill="none" xmlns="http://www.w3.org/2000/svg">
<path d="M20 1.75004V14.25C20 14.9594 19.4594 15.5 18.75 15.5H17.5V4.15566L10 9.54316L2.5 4.15566V15.5H1.25C0.540625 15.5 0 14.9594 0 14.25V1.75004C0 1.39504 0.13375 1.08254 0.358125 0.861285C0.474983 0.744365 0.614156 0.652134 0.767371 0.590075C0.920586 0.528015 1.08471 0.497396 1.25 0.500035H1.66688L10 6.54191L18.3331 0.500035H18.75C19.105 0.500035 19.4175 0.633785 19.6419 0.861285C19.8662 1.08254 20 1.39504 20 1.75004Z" fill="white"/>
</svg>
