<svg width="11" height="7" viewBox="0 0 11 7" fill="none" xmlns="http://www.w3.org/2000/svg">
<path d="M1.61149 0.238037H4.94482C5.12163 0.238037 5.2912 0.308275 5.41623 0.433299C5.54125 0.558324 5.61149 0.727893 5.61149 0.904704C5.61149 1.08151 5.54125 1.25108 5.41623 1.37611C5.2912 1.50113 5.12163 1.57137 4.94482 1.57137H1.61149C1.43468 1.57137 1.26511 1.50113 1.14009 1.37611C1.01506 1.25108 0.944824 1.08151 0.944824 0.904704C0.944824 0.727893 1.01506 0.558324 1.14009 0.433299C1.26511 0.308275 1.43468 0.238037 1.61149 0.238037ZM6.27816 5.57137H9.61149C9.7883 5.57137 9.95787 5.64161 10.0829 5.76663C10.2079 5.89166 10.2782 6.06123 10.2782 6.23804C10.2782 6.41485 10.2079 6.58442 10.0829 6.70944C9.95787 6.83447 9.7883 6.9047 9.61149 6.9047H6.27816C6.10135 6.9047 5.93178 6.83447 5.80675 6.70944C5.68173 6.58442 5.61149 6.41485 5.61149 6.23804C5.61149 6.06123 5.68173 5.89166 5.80675 5.76663C5.93178 5.64161 6.10135 5.57137 6.27816 5.57137ZM1.61149 2.9047H9.61149C9.7883 2.9047 9.95787 2.97494 10.0829 3.09997C10.2079 3.22499 10.2782 3.39456 10.2782 3.57137C10.2782 3.74818 10.2079 3.91775 10.0829 4.04277C9.95787 4.1678 9.7883 4.23804 9.61149 4.23804H1.61149C1.43468 4.23804 1.26511 4.1678 1.14009 4.04277C1.01506 3.91775 0.944824 3.74818 0.944824 3.57137C0.944824 3.39456 1.01506 3.22499 1.14009 3.09997C1.26511 2.97494 1.43468 2.9047 1.61149 2.9047Z" fill="white"/>
</svg>
