<svg width="19" height="19" viewBox="0 0 19 19" fill="none" xmlns="http://www.w3.org/2000/svg">
<path d="M2.34709 3.712C1.93109 3.712 1.57909 3.568 1.29109 3.28C1.00309 2.992 0.859094 2.64 0.859094 2.224C0.859094 1.808 1.00309 1.456 1.29109 1.168C1.57909 0.879999 1.93109 0.735999 2.34709 0.735999C2.74709 0.735999 3.08309 0.879999 3.35509 1.168C3.64309 1.456 3.78709 1.808 3.78709 2.224C3.78709 2.64 3.64309 2.992 3.35509 3.28C3.08309 3.568 2.74709 3.712 2.34709 3.712ZM3.40309 5.848V19H1.21909V5.848H3.40309ZM13.5333 5.608C15.1333 5.608 16.4293 6.096 17.4213 7.072C18.4133 8.032 18.9093 9.424 18.9093 11.248V19H16.7493V11.56C16.7493 10.248 16.4213 9.248 15.7653 8.56C15.1093 7.856 14.2133 7.504 13.0773 7.504C11.9253 7.504 11.0053 7.864 10.3173 8.584C9.64534 9.304 9.30934 10.352 9.30934 11.728V19H7.12534V5.848H9.30934V7.72C9.74134 7.048 10.3253 6.528 11.0613 6.16C11.8133 5.792 12.6373 5.608 13.5333 5.608Z" fill="white"/>
</svg>
