<svg width="20" height="27" viewBox="0 0 20 27" fill="none" xmlns="http://www.w3.org/2000/svg">
<path d="M4.87894 8.37521C3.56884 7.75413 2.66284 6.41953 2.66284 4.87332C2.66284 2.73414 4.39699 1 6.53616 1C8.67533 1 10.4095 2.73414 10.4095 4.87332C10.4095 6.41953 9.50348 7.75413 8.19338 8.37521" stroke="#FEE6C8" stroke-width="1.10666" stroke-miterlimit="10" stroke-linecap="round" stroke-linejoin="round"/>
<path d="M10.4819 8.74664C11.4613 7.74843 12.0667 6.38225 12.0667 4.87332C12.0667 3.36438 11.4613 1.99821 10.4819 1" stroke="#FEE6C8" stroke-width="1.10666" stroke-miterlimit="10" stroke-linecap="round" stroke-linejoin="round"/>
<path d="M4.87321 13.7268C4.87321 12.8099 4.13009 12.0668 3.21322 12.0668C2.29635 12.0668 1.55322 12.8099 1.55322 13.7268V17.6001C1.55322 22.1839 5.26939 25.9001 9.85319 25.9001C14.437 25.9001 18.1532 22.1839 18.1532 17.6001V13.7268C18.1532 12.8099 17.41 12.0668 16.4932 12.0668C15.5763 12.0668 14.8332 12.8099 14.8332 13.7268V12.6201C14.8332 11.7033 14.09 10.9601 13.1732 10.9601C12.2563 10.9601 11.5132 11.7033 11.5132 12.6201V11.5135C11.5132 10.5966 10.7701 9.85347 9.85319 9.85347C8.93632 9.85347 8.1932 10.5966 8.1932 11.5135V4.87349C8.1932 3.95662 7.45007 3.2135 6.5332 3.2135C5.61633 3.2135 4.87321 3.95662 4.87321 4.87349V17.0468V13.7268Z" stroke="url(#paint0_linear_223_409)" stroke-width="2.21332" stroke-miterlimit="10" stroke-linecap="round" stroke-linejoin="round"/>
<path d="M2.58474 1C1.60534 1.99821 1 3.36438 1 4.87332C1 6.38225 1.60534 7.74843 2.58474 8.74664" stroke="#FEE6C8" stroke-width="1.10666" stroke-miterlimit="10" stroke-linecap="round" stroke-linejoin="round"/>
<defs>
<linearGradient id="paint0_linear_223_409" x1="1.55322" y1="14.5568" x2="18.1532" y2="14.5568" gradientUnits="userSpaceOnUse">
<stop stop-color="#7A87FB"/>
<stop offset="1" stop-color="#FFD49C"/>
</linearGradient>
</defs>
</svg>
